<?xml version="1.0" encoding="UTF-8"?>
<svg id="Capa_1" xmlns="http://www.w3.org/2000/svg" version="1.1" viewBox="0 0 1540.23 288">
  <!-- Generator: Adobe Illustrator 29.0.0, SVG Export Plug-In . SVG Version: 2.1.0 Build 186)  -->
  <defs>
    <style>
      .st0 {
        fill: #3063ad;
      }

      .st1 {
        fill: #222;
      }
    </style>
  </defs>
  <path class="st1" d="M162.88,199.74c4.99-17.91,11.17-37.13,18.54-57.65l39.29-108.84h58.5v227.55h-41.67v-115.3c0-16.89.68-36.51,2.04-58.84h-1.53c-1.93,6.46-4.2,13.72-6.8,21.77-2.61,8.05-5.33,15.99-8.16,23.81l-47.11,128.57h-26.87l-47.11-128.57c-2.83-7.82-5.56-15.76-8.16-23.81-2.61-8.05-4.88-15.31-6.8-21.77h-1.53c1.36,20.98,2.04,40.53,2.04,58.67v115.47h-41.67V33.25h58.16l39.29,108.33c6.57,18.03,12.75,37.41,18.54,58.16h1.02Z"/>
  <path class="st1" d="M378.52,33.25h41.67v168.19c0,7.48-.54,13.92-1.62,19.3-1.08,5.39-2.69,10.12-4.85,14.2-2.84,5.44-6.41,10.06-10.71,13.86-4.31,3.8-9.18,6.92-14.63,9.35-5.44,2.44-11.28,4.19-17.52,5.27-6.24,1.08-12.7,1.62-19.39,1.62s-13.63-.57-20.15-1.7c-6.52-1.13-11.99-2.61-16.41-4.42v-35.54c4.99,2.04,10.32,3.63,15.99,4.76,5.67,1.13,11.28,1.7,16.84,1.7,10.77,0,18.59-2.49,23.47-7.48,4.87-4.99,7.31-12.36,7.31-22.11V33.25Z"/>
  <path class="st1" d="M685.32,147.02c0,17.35-2.47,33.25-7.4,47.7-4.93,14.46-12.13,26.9-21.6,37.33-9.47,10.43-21.09,18.54-34.86,24.32-13.78,5.78-29.45,8.67-47.02,8.67s-33.25-2.89-47.02-8.67-25.4-13.89-34.86-24.32c-9.47-10.43-16.67-22.87-21.6-37.33-4.93-14.46-7.4-30.36-7.4-47.7s2.47-33.25,7.4-47.7,12.13-26.9,21.6-37.33c9.47-10.43,21.09-18.54,34.86-24.32,13.78-5.78,29.45-8.67,47.02-8.67s33.25,2.89,47.02,8.67c13.77,5.78,25.39,13.89,34.86,24.32,9.47,10.43,16.67,22.87,21.6,37.33s7.4,30.36,7.4,47.7ZM642.29,147.02c0-13.83-1.7-25.93-5.1-36.31-3.4-10.37-8.11-19.02-14.12-25.93-6.01-6.91-13.15-12.07-21.43-15.48-8.28-3.4-17.35-5.1-27.21-5.1s-18.94,1.7-27.21,5.1c-8.28,3.4-15.42,8.56-21.43,15.48-6.01,6.92-10.71,15.56-14.12,25.93-3.4,10.37-5.1,22.48-5.1,36.31s1.7,25.94,5.1,36.31,8.1,18.99,14.12,25.85c6.01,6.86,13.15,12.02,21.43,15.48,8.27,3.46,17.35,5.19,27.21,5.19s18.93-1.73,27.21-5.19c8.27-3.46,15.42-8.61,21.43-15.48,6.01-6.86,10.71-15.48,14.12-25.85s5.1-22.48,5.1-36.31Z"/>
  <path class="st0" d="M771.2,33.25v192.68h106.46v34.86h-148.13V33.25h41.67Z"/>
  <path class="st0" d="M916.78,260.79V33.25h41.67v227.55h-41.67Z"/>
  <path class="st0" d="M1105.89,260.79h-41.67V68.11h-73.47v-34.86h188.43v34.86h-73.3v192.68Z"/>
  <path class="st0" d="M1305.71,265.05c-11.9,0-22.62-1.16-32.14-3.49-9.52-2.32-17.91-5.67-25.17-10.03-7.26-4.36-13.44-9.69-18.54-15.99-5.1-6.29-9.18-13.41-12.25-21.34-2.49-6.35-4.28-13.38-5.36-21.09-1.08-7.71-1.62-16.33-1.62-25.85V33.25h41.66v130.27c0,16.1,1.93,28.68,5.78,37.75,4.31,10.09,10.6,17.38,18.88,21.85,8.28,4.48,18.03,6.72,29.25,6.72s20.97-2.24,29.25-6.72c8.28-4.48,14.57-11.76,18.88-21.85,3.85-9.07,5.78-21.65,5.78-37.75V33.25h41.67v134.01c0,9.52-.54,18.14-1.62,25.85-1.08,7.71-2.87,14.74-5.36,21.09-3.06,7.94-7.17,15.05-12.33,21.34-5.16,6.29-11.45,11.62-18.88,15.99-7.43,4.37-15.96,7.71-25.59,10.03-9.64,2.32-20.41,3.49-32.31,3.49Z"/>
  <path class="st0" d="M1455.37,260.79V33.25h41.67v227.55h-41.67Z"/>
</svg>