<?xml version="1.0" encoding="UTF-8"?>
<svg id="Capa_1" xmlns="http://www.w3.org/2000/svg" version="1.1" xmlns:xlink="http://www.w3.org/1999/xlink" viewBox="0 0 2114.5 500">
  <!-- Generator: Adobe Illustrator 29.0.0, SVG Export Plug-In . SVG Version: 2.1.0 Build 186)  -->
  <defs>
    <style>
      .st0 {
        fill: url(#Degradado_sin_nombre_5);
      }

      .st1 {
        fill: #2563ba;
      }

      .st2 {
        fill: url(#Degradado_sin_nombre_34);
      }

      .st3 {
        fill: #c9feff;
      }

      .st4 {
        fill: #1b293b;
      }

      .st5 {
        fill: #2561b7;
      }

      .st6 {
        fill: url(#Degradado_sin_nombre_4);
      }

      .st7 {
        fill: #1f293d;
      }

      .st8 {
        fill: url(#Degradado_sin_nombre_2);
      }

      .st9 {
        fill: url(#Degradado_sin_nombre_32);
      }

      .st10 {
        fill: url(#Degradado_sin_nombre_35);
      }

      .st11 {
        fill: #30435e;
      }

      .st12 {
        fill: url(#Degradado_sin_nombre_3);
      }

      .st13 {
        fill: url(#Degradado_sin_nombre);
      }

      .st14 {
        fill: #52a1eb;
      }

      .st15 {
        fill: #60b5fd;
      }

      .st16 {
        fill: #eaeaea;
      }

      .st17 {
        fill: #25354c;
      }

      .st18 {
        fill: url(#Degradado_sin_nombre_33);
      }

      .st19 {
        fill: url(#Degradado_sin_nombre_31);
      }

      .st20 {
        fill: #1e3b69;
      }
    </style>
    <linearGradient id="Degradado_sin_nombre" data-name="Degradado sin nombre" x1="246.8" y1="639.6" x2="89" y2="751.7" gradientTransform="translate(0 -580)" gradientUnits="userSpaceOnUse">
      <stop offset="0" stop-color="#c7ebf9"/>
      <stop offset=".1" stop-color="#b7e7fa"/>
      <stop offset=".3" stop-color="#9ee0fb"/>
      <stop offset=".5" stop-color="#8cdcfb"/>
      <stop offset=".7" stop-color="#81d9fc"/>
      <stop offset="1" stop-color="#7ed8fc"/>
    </linearGradient>
    <linearGradient id="Degradado_sin_nombre_2" data-name="Degradado sin nombre 2" x1="267.3" y1="650.7" x2="398.8" y2="734.4" gradientTransform="translate(0 -580)" gradientUnits="userSpaceOnUse">
      <stop offset="0" stop-color="#1a65a3"/>
      <stop offset="1" stop-color="#41608c"/>
    </linearGradient>
    <linearGradient id="Degradado_sin_nombre_3" data-name="Degradado sin nombre 3" x1="108.9" y1="938.9" x2="233" y2="1018.6" gradientTransform="translate(0 -580)" gradientUnits="userSpaceOnUse">
      <stop offset="0" stop-color="#1d7edd"/>
      <stop offset=".5" stop-color="#1472d1"/>
      <stop offset="1" stop-color="#0860bf"/>
    </linearGradient>
    <linearGradient id="Degradado_sin_nombre_4" data-name="Degradado sin nombre 4" x1="91.1" y1="914.5" x2="93.6" y2="753.8" gradientTransform="translate(0 -580)" gradientUnits="userSpaceOnUse">
      <stop offset="0" stop-color="#1d7edd"/>
      <stop offset=".2" stop-color="#2889dd"/>
      <stop offset="1" stop-color="#5bbfdd"/>
    </linearGradient>
    <linearGradient id="Degradado_sin_nombre_5" data-name="Degradado sin nombre 5" x1="236" y1="711.4" x2="361.9" y2="791.5" gradientTransform="translate(0 -580)" gradientUnits="userSpaceOnUse">
      <stop offset="0" stop-color="#8ccaf4"/>
      <stop offset="1" stop-color="#5bb2fb"/>
    </linearGradient>
    <linearGradient id="Degradado_sin_nombre_31" data-name="Degradado sin nombre 3" x1="1297.3" y1="256.1" x2="1448.4" y2="256.1" gradientTransform="matrix(1,0,0,1,0,0)" xlink:href="#Degradado_sin_nombre_3"/>
    <linearGradient id="Degradado_sin_nombre_32" data-name="Degradado sin nombre 3" x1="1475.7" y1="256.1" x2="1519.7" y2="256.1" gradientTransform="matrix(1,0,0,1,0,0)" xlink:href="#Degradado_sin_nombre_3"/>
    <linearGradient id="Degradado_sin_nombre_33" data-name="Degradado sin nombre 3" x1="1548.8" y1="256.1" x2="1732.8" y2="256.1" gradientTransform="matrix(1,0,0,1,0,0)" xlink:href="#Degradado_sin_nombre_3"/>
    <linearGradient id="Degradado_sin_nombre_34" data-name="Degradado sin nombre 3" x1="1755.5" y1="258.3" x2="1972.1" y2="258.3" gradientTransform="matrix(1,0,0,1,0,0)" xlink:href="#Degradado_sin_nombre_3"/>
    <linearGradient id="Degradado_sin_nombre_35" data-name="Degradado sin nombre 3" x1="2015.4" y1="256.1" x2="2059.5" y2="256.1" gradientTransform="matrix(1,0,0,1,0,0)" xlink:href="#Degradado_sin_nombre_3"/>
  </defs>
  <g id="Capa_2">
    <polygon class="st13" points="59.9 143.3 253.5 25 253.5 103.9 124.4 182.8 59.9 143.3"/>
    <polygon class="st8" points="446.2 142.6 380.2 182.8 253.5 103.9 253.5 25 446.2 142.6"/>
    <polygon class="st7" points="380.2 182.8 380.2 332.3 253.5 409.7 253.5 484.9 446.2 371.8 446.2 142.6 380.2 182.8"/>
    <polygon class="st12" points="125.2 335.4 253.5 409.7 253.5 484.9 59.9 369.5 125.2 335.4"/>
    <polygon class="st6" points="124.4 182.8 125.2 335.4 59.9 369.5 59.9 143.3 124.4 182.8"/>
    <polygon class="st3" points="253.5 182.8 253.5 103.9 124.4 182.8 189 222.3 253.5 182.8"/>
    <polygon class="st0" points="315.7 222.3 253.5 182.8 253.5 103.9 380.2 182.8 315.7 222.3"/>
    <polygon class="st14" points="253.5 259.7 315.7 222.3 253.5 182.8 189 222.3 253.5 259.7"/>
    <polygon class="st11" points="253.5 335.4 253.5 259.7 189 222.3 189 296.6 253.5 335.4"/>
    <polygon class="st4" points="315.7 296.1 253.5 335.4 253.5 259.7 315.7 222.3 315.7 296.1"/>
    <polygon class="st17" points="380.2 259.7 315.7 296.1 315.7 222.3 380.2 182.8 380.2 259.7"/>
    <polygon class="st15" points="189 296.6 189 372.3 125.2 335.4 124.4 182.8 189 222.3 189 296.6"/>
    <polygon class="st5" points="315.7 296.1 315.7 371.7 380.2 332.3 380.2 259.7 315.7 296.1"/>
    <polygon class="st20" points="253.5 335.4 315.7 296.1 315.7 371.7 253.5 409.7 253.5 335.4"/>
    <polygon class="st1" points="189 296.6 253.5 335.4 253.5 409.7 189 372.3 189 296.6"/>
  </g>
  <g id="Capa_21" data-name="Capa_2">
    <g>
      <path class="st16" d="M544.1,391.1l3.7-36.6,11-147.4,5.3-86c8.9.1,16.6.2,23.2.2s13.5,0,22.1-.2l4,17.2c1.2,4.6,2.6,10,4.4,16.2,1.8,6.2,4.8,16.6,9.2,31.1l21.6,70.2,26.9,94.2,35-94.2,39.9-102.9c1.4-3.7,2.8-7.6,4.1-11.8,1.3-4.2,3.5-10.8,6.4-20.1,7.6.1,15.5.2,23.8.2s14.1,0,22.5-.2l-2.2,94.3-.9,61.9c-.1,5.8-.2,11.6-.2,17.4l.2,45.3v25.5c0,2.9.1,11.4.4,25.5-7.8-.3-12.9-.4-15.5-.4s-9,.1-16,.4l1.1-25.1,2.6-142.4c.4-16,.5-33.7.5-53.2l-.2-16.2-77.2,208.3-10.2,28.7c-7.6-.3-13-.4-16.1-.4s-9.3.1-16.9.4l-20.9-74.6-21.6-73.4-21.4-70.8c-.9-3.2-2.5-8.8-4.7-17l-2.2,23.1-10.8,170.1c-.2,5.7-.4,11.3-.6,17-.2,5.7-.4,14.2-.6,25.5l-14.8-.4c-2.3,0-7.4.1-15.1.4Z"/>
      <path class="st16" d="M827.5,388.7c-.5-10.7-1.2-20.9-2.3-30.7,12.3,4.2,21.8,7,28.4,8.3,6.6,1.3,13.1,2,19.5,2s12-.9,17.6-2.6c4.9-1.6,9.2-3.6,12.9-6.1,3.1-2.1,5.6-4.5,7.6-7.1,2.6-3.6,4.8-7.9,6.7-12.9,2-5,3.3-10.8,4.1-17.4,1.1-9.5,2.2-28.6,3.3-57.2l1.9-70.3,1.2-73.6,16.9.2,17.6-.2c-2.5,41.2-4.3,77.4-5.5,108.7l-2.7,75c-.6,18.6-1.9,32.8-4,42.7-2.1,9.8-6.2,18.2-12.2,25.2s-14.1,12.5-24.1,16.6c-10,4.1-21.4,6.1-34.2,6.1s-32.9-2.2-52.6-6.7Z"/>
      <path class="st16" d="M1136,116.8c17.4,0,33.9,2.8,49.5,8.5,15.6,5.7,29.4,15,41.3,28.1,11.9,13.1,20.4,27.7,25.4,43.9s7.6,33.8,7.6,52.8-2.8,39.8-8.5,58.5c-5.6,18.7-14.3,34.6-26.1,47.7-11.7,13.1-26.2,22.8-43.3,29.4-17.1,6.5-35.2,9.8-54.1,9.8s-35.2-3-51.7-8.9c-16.5-5.9-30.6-15.1-42.2-27.4-11.6-12.3-20-26.8-25.2-43.5-5.2-16.7-7.7-34.4-7.7-53.1s3.1-40.3,9.3-59.2c6.2-18.9,15.4-34.9,27.6-48,12.2-13.1,26.8-22.7,44-29.1,17.2-6.3,35.2-9.5,54-9.5ZM1134.1,143.3c-14.1,0-27.4,2.5-40,7.6-12.6,5.1-23.5,13.2-32.8,24.4-9.3,11.2-16.3,24.4-20.8,39.5-4.5,15.1-6.8,31-6.8,47.4s2.2,29.9,6.7,44c4.5,14,11,25.7,19.7,35.1,8.7,9.4,19.1,16.3,31.3,20.8,12.2,4.5,24.9,6.8,38.2,6.8s26.6-2.4,39-7.3c12.4-4.9,23.1-12.6,32.1-23.2,9-10.6,15.6-23.4,20-38.4,4.3-15,6.5-30.8,6.5-47.2s-2-30.4-5.9-44.6c-3.9-14.2-10.2-26.3-18.8-36.3-8.6-10-18.9-17.3-30.7-21.8-11.9-4.5-24.4-6.8-37.7-6.8Z"/>
      <path class="st19" d="M1297.3,391.1c2.7-34,5-75.6,6.9-124.7,1.9-49.1,3.1-97.5,3.6-145.3,8.1.1,14.3.2,18.5.2l16.4-.2-5.6,125.3-4.2,118.2,33.5.2c24.9,0,42.4,0,52.6-.3,10.2-.2,20-.6,29.5-1.3-.7,8.4-1.3,17.7-1.8,27.9-26.7-.3-50.2-.4-70.6-.4l-78.7.4Z"/>
      <path class="st9" d="M1475.7,391.1l2.6-45.5,3.7-94.7,2.5-93.4c.1-5.4.2-10.8.2-16.2l-.2-20.2,18.2.2,17.1-.2c-2.1,33-3.7,67.4-4.7,103.3-1.9,57.5-3.2,113.1-4,166.7l-16.6-.4c-2.1,0-8.3.1-18.7.4Z"/>
      <path class="st18" d="M1614.5,391.1l3.5-60.5,4.7-125.4,1.6-58c-28.7.1-53.9.7-75.5,1.8.7-10.5,1.1-19.8,1.2-27.9,29.8.1,62,.2,96.5.2l56.3-.2h29.9c-.8,11.7-1.2,21-1.2,27.9-18.2-1.2-38.3-1.8-60.4-1.8h-14.4l-3.7,87.6-3.7,123.3v33l-16.9-.4c-1.5,0-7.5.1-18,.4Z"/>
      <path class="st2" d="M1762.2,121.1l17.5.2,17.1-.2-7.9,150.9-.5,18.4v3.8c0,18.3,2.4,32.5,7.2,42.6,4.8,10.1,12.5,17.9,23,23.4,10.5,5.5,23.8,8.3,39.9,8.3s20.8-1.6,29.9-4.7c7.6-2.8,14.1-6.5,19.5-11.1,5.3-4.6,9.8-10.3,13.3-17,3.3-6.5,5.6-13.8,7-22,1.6-10.3,3.1-28.2,4.4-53.8l3.1-63.7c.9-23.5,1.6-48.5,1.9-75.2l18.2.2,16.4-.2-5.1,93.2-3.2,77.1c-1.1,17.9-2.8,31.8-5.1,41.7-1.8,7-4.3,13.6-7.7,19.8-3.1,5.5-6.8,10.5-11.3,14.8-5.3,5.3-11.7,10-19.2,14-8,4.2-16.4,7.4-25.4,9.5-12.8,2.8-26.1,4.2-39.8,4.2s-25.9-1.5-37.5-4.5c-10.1-2.6-19.4-6.7-27.8-12.1-8.5-5.4-15.2-11.5-20.2-18.4-4.2-5.5-7.6-12.5-10-21-2.8-9.5-4.2-20-4.2-31.4s.4-26.3,1.3-42.1c.9-15.8,2-39.7,3.3-71.6,1.3-31.9,2-56.3,2-73.2Z"/>
      <path class="st10" d="M2015.4,391.1l2.6-45.5,3.7-94.7,2.5-93.4c.1-5.4.2-10.8.2-16.2l-.2-20.2,18.2.2,17.1-.2c-2.1,33-3.7,67.4-4.7,103.3-1.9,57.5-3.2,113.1-4,166.7l-16.6-.4c-2.1,0-8.3.1-18.7.4Z"/>
    </g>
  </g>
</svg>