<?xml version="1.0" encoding="UTF-8"?>
<svg id="Capa_2" data-name="Capa 2" xmlns="http://www.w3.org/2000/svg" version="1.1" xmlns:xlink="http://www.w3.org/1999/xlink" viewBox="0 0 1641.3 349.6">
  <defs>
    <style>
      .cls-1 {
        fill: #eaeaea;
      }

      .cls-1, .cls-2, .cls-3, .cls-4, .cls-5, .cls-6, .cls-7 {
        stroke-width: 0px;
      }

      .cls-2 {
        fill: url(#Degradado_sin_nombre_6-3);
      }

      .cls-3 {
        fill: url(#Degradado_sin_nombre_6-5);
      }

      .cls-4 {
        fill: url(#Degradado_sin_nombre_6-2);
      }

      .cls-5 {
        fill: url(#Degradado_sin_nombre_6-4);
      }

      .cls-6 {
        fill: #7dc717;
      }

      .cls-7 {
        fill: url(#Degradado_sin_nombre_6);
      }
    </style>
    <linearGradient id="Degradado_sin_nombre_6" data-name="Degradado sin nombre 6" x1="847.4" y1="183.4" x2="984.1" y2="183.4" gradientUnits="userSpaceOnUse">
      <stop offset="0" stop-color="#1d7edd"/>
      <stop offset=".5" stop-color="#1472d1"/>
      <stop offset="1" stop-color="#0860bf"/>
    </linearGradient>
    <linearGradient id="Degradado_sin_nombre_6-2" data-name="Degradado sin nombre 6" x1="1020.1" x2="1070.9" xlink:href="#Degradado_sin_nombre_6"/>
    <linearGradient id="Degradado_sin_nombre_6-3" data-name="Degradado sin nombre 6" x1="1101.4" y1="183.2" x2="1268.7" y2="183.2" xlink:href="#Degradado_sin_nombre_6"/>
    <linearGradient id="Degradado_sin_nombre_6-4" data-name="Degradado sin nombre 6" x1="1300.5" y1="186.7" x2="1523.6" y2="186.7" xlink:href="#Degradado_sin_nombre_6"/>
    <linearGradient id="Degradado_sin_nombre_6-5" data-name="Degradado sin nombre 6" x1="1557.6" x2="1608.4" xlink:href="#Degradado_sin_nombre_6"/>
  </defs>
  <g>
    <path class="cls-7" d="M984.1,326.5h-136.7V40.3h50.7v240.5h86v45.7Z"/>
    <path class="cls-4" d="M1070.9,326.5h-50.7V40.3h50.7v286.2Z"/>
    <path class="cls-2" d="M1268.7,84.9l-57.7,1.2v240.5h-50.3V86l-59.3-1.2,1.5-44.9h165.8v44.9Z"/>
    <path class="cls-5" d="M1523.6,220c0,32.8-10.5,59.8-31.4,81.1-20.9,21.3-47.8,32-80.6,32s-58.5-10.5-79.6-31.6c-21-21-31.6-47.6-31.6-79.6V40.3h50.7v173.5c0,21.4,4.6,38.5,13.9,51.1,10.3,13.9,25.8,20.9,46.5,20.9,40.8,0,61.2-24.9,61.2-74.7V40.3h50.7v179.7Z"/>
    <path class="cls-3" d="M1608.4,326.5h-50.7V40.3h50.7v286.2Z"/>
  </g>
  <g>
    <path class="cls-1" d="M329,321.5h-51.1l-1.2-154.9-88.3,92.9-88.3-92.9v154.9h-54.2V22.5l141,159.6L329,24v297.4Z"/>
    <path class="cls-1" d="M484.7,216.9c0,72.8-28.9,109.2-86.7,109.2h-34.9v-46.5c19.4.3,32.4.4,39.1.4,21.2,0,31.8-21,31.8-63.1l-1.2-138.6h-72.8l1.5-44.9,123.2.4v183.2Z"/>
    <path class="cls-1" d="M821.2,176.6c0,41.8-15.5,77.3-46.5,106.3-31,29-67.5,43.6-109.6,43.6s-78.9-14.4-109.6-43.2c-30.7-28.8-46.1-64.3-46.1-106.7s15.6-77.3,46.9-106.5c30.5-28.1,66.7-42.2,108.8-42.2s78.5,14.1,109.2,42.2c31.2,29.2,46.9,64.7,46.9,106.5ZM770.5,176.6c0-28.9-10.3-53.3-30.8-73.2-20.5-19.9-45.4-29.8-74.6-29.8s-54,9.9-74.6,29.6c-20.5,19.8-30.8,44.2-30.8,73.4s10.4,52.9,31.2,72.8c20.8,19.9,45.5,29.8,74.2,29.8s53.4-10,74.2-30c20.8-20,31.2-44.2,31.2-72.6Z"/>
  </g>
  <circle class="cls-6" cx="667.3" cy="174.8" r="37.4"/>
</svg>