<?xml version="1.0" encoding="UTF-8"?>
<svg id="Capa_1" xmlns="http://www.w3.org/2000/svg" version="1.1" xmlns:xlink="http://www.w3.org/1999/xlink" viewBox="0 0 500 643">
  <!-- Generator: Adobe Illustrator 29.0.0, SVG Export Plug-In . SVG Version: 2.1.0 Build 186)  -->
  <defs>
    <style>
      .st0 {
        fill: url(#Degradado_sin_nombre_6);
      }

      .st1 {
        fill: url(#Degradado_sin_nombre_5);
      }

      .st2 {
        fill: #2563ba;
      }

      .st3 {
        fill: url(#Degradado_sin_nombre_34);
      }

      .st4 {
        fill: #c9feff;
      }

      .st5 {
        fill: #1b293b;
      }

      .st6 {
        fill: #2561b7;
      }

      .st7 {
        fill: #303030;
      }

      .st8 {
        fill: url(#Degradado_sin_nombre_4);
      }

      .st9 {
        fill: #1f293d;
      }

      .st10 {
        fill: url(#Degradado_sin_nombre_2);
      }

      .st11 {
        fill: url(#Degradado_sin_nombre_32);
      }

      .st12 {
        fill: url(#Degradado_sin_nombre_35);
      }

      .st13 {
        fill: #30435e;
      }

      .st14 {
        fill: url(#Degradado_sin_nombre_3);
      }

      .st15 {
        fill: #52a1eb;
      }

      .st16 {
        fill: #60b5fd;
      }

      .st17 {
        fill: #25354c;
      }

      .st18 {
        fill: url(#Degradado_sin_nombre_33);
      }

      .st19 {
        fill: url(#Degradado_sin_nombre_31);
      }

      .st20 {
        fill: #1e3b69;
      }
    </style>
    <linearGradient id="Degradado_sin_nombre_6" data-name="Degradado sin nombre 6" x1="244.86" y1="459.23" x2="118.42" y2="369.39" gradientTransform="translate(0 502) scale(1 -1)" gradientUnits="userSpaceOnUse">
      <stop offset="0" stop-color="#c7ebf9"/>
      <stop offset=".1" stop-color="#b7e7fa"/>
      <stop offset=".31" stop-color="#9ee0fb"/>
      <stop offset=".52" stop-color="#8cdcfb"/>
      <stop offset=".74" stop-color="#81d9fc"/>
      <stop offset="1" stop-color="#7ed8fc"/>
    </linearGradient>
    <linearGradient id="Degradado_sin_nombre_2" data-name="Degradado sin nombre 2" x1="261.31" y1="450.35" x2="366.73" y2="383.28" gradientTransform="translate(0 502) scale(1 -1)" gradientUnits="userSpaceOnUse">
      <stop offset="0" stop-color="#1a65a3"/>
      <stop offset="1" stop-color="#41608c"/>
    </linearGradient>
    <linearGradient id="Degradado_sin_nombre_3" data-name="Degradado sin nombre 3" x1="134.3" y1="219.32" x2="233.81" y2="155.47" gradientTransform="translate(0 502) scale(1 -1)" gradientUnits="userSpaceOnUse">
      <stop offset="0" stop-color="#1d7edd"/>
      <stop offset=".49" stop-color="#1472d1"/>
      <stop offset="1" stop-color="#0860bf"/>
    </linearGradient>
    <linearGradient id="Degradado_sin_nombre_4" data-name="Degradado sin nombre 4" x1="120.09" y1="238.94" x2="122.07" y2="367.74" gradientTransform="translate(0 502) scale(1 -1)" gradientUnits="userSpaceOnUse">
      <stop offset="0" stop-color="#1d7edd"/>
      <stop offset=".17" stop-color="#2889dd"/>
      <stop offset="1" stop-color="#5bbfdd"/>
    </linearGradient>
    <linearGradient id="Degradado_sin_nombre_5" data-name="Degradado sin nombre 5" x1="236.21" y1="401.69" x2="337.17" y2="337.45" gradientTransform="translate(0 502) scale(1 -1)" gradientUnits="userSpaceOnUse">
      <stop offset="0" stop-color="#8ccaf4"/>
      <stop offset="1" stop-color="#5bb2fb"/>
    </linearGradient>
    <linearGradient id="Degradado_sin_nombre_31" data-name="Degradado sin nombre 3" x1="90.96" y1="573.1" x2="152.87" y2="573.1" gradientTransform="matrix(1,0,0,1,0,0)" xlink:href="#Degradado_sin_nombre_3"/>
    <linearGradient id="Degradado_sin_nombre_32" data-name="Degradado sin nombre 3" x1="164.05" y1="573.1" x2="182.09" y2="573.1" gradientTransform="matrix(1,0,0,1,0,0)" xlink:href="#Degradado_sin_nombre_3"/>
    <linearGradient id="Degradado_sin_nombre_33" data-name="Degradado sin nombre 3" x1="194.01" y1="573.1" x2="269.4" y2="573.1" gradientTransform="matrix(1,0,0,1,0,0)" xlink:href="#Degradado_sin_nombre_3"/>
    <linearGradient id="Degradado_sin_nombre_34" data-name="Degradado sin nombre 3" x1="278.71" y1="573.99" x2="367.45" y2="573.99" gradientTransform="matrix(1,0,0,1,0,0)" xlink:href="#Degradado_sin_nombre_3"/>
    <linearGradient id="Degradado_sin_nombre_35" data-name="Degradado sin nombre 3" x1="385.2" y1="573.1" x2="403.24" y2="573.1" gradientTransform="matrix(1,0,0,1,0,0)" xlink:href="#Degradado_sin_nombre_3"/>
  </defs>
  <g>
    <polygon class="st0" points="95.09 109.9 250.26 15 250.26 78.24 146.78 141.55 95.09 109.9"/>
    <polygon class="st10" points="404.7 109.25 351.8 141.55 250.26 78.24 250.26 15 404.7 109.25"/>
    <polygon class="st9" points="351.8 141.55 351.8 261.37 250.26 323.41 250.26 383.6 404.7 292.95 404.7 109.25 351.8 141.55"/>
    <polygon class="st14" points="147.43 263.78 250.26 323.41 250.26 383.6 95.09 291.19 147.43 263.78"/>
    <polygon class="st8" points="146.78 141.55 147.43 263.78 95.09 291.19 95.09 109.9 146.78 141.55"/>
    <polygon class="st4" points="250.26 141.55 250.26 78.24 146.78 141.55 198.48 173.13 250.26 141.55"/>
    <polygon class="st1" points="300.11 173.13 250.26 141.55 250.26 78.24 351.8 141.55 300.11 173.13"/>
    <polygon class="st15" points="250.26 203.19 300.11 173.13 250.26 141.55 198.48 173.13 250.26 203.19"/>
    <polygon class="st13" points="250.26 263.78 250.26 203.19 198.48 173.13 198.48 232.76 250.26 263.78"/>
    <polygon class="st5" points="300.11 232.36 250.26 263.78 250.26 203.19 300.11 173.13 300.11 232.36"/>
    <polygon class="st17" points="351.8 203.19 300.11 232.36 300.11 173.13 351.8 141.55 351.8 203.19"/>
    <polygon class="st16" points="198.48 232.76 198.48 293.43 147.43 263.78 146.78 141.55 198.48 173.13 198.48 232.76"/>
    <polygon class="st6" points="300.11 232.36 300.11 292.95 351.8 261.37 351.8 203.19 300.11 232.36"/>
    <polygon class="st20" points="250.26 263.78 300.11 232.36 300.11 292.95 250.26 323.41 250.26 263.78"/>
    <polygon class="st2" points="198.48 232.76 250.26 263.78 250.26 323.41 198.48 293.43 198.48 232.76"/>
  </g>
  <g id="Capa_2">
    <g>
      <path class="st7" d="M131.61,495.75l1.24-12.1,3.65-48.75,1.77-28.46c2.94.04,5.5.07,7.67.07,2.01,0,4.45-.02,7.32-.07l1.34,5.69c.39,1.53.87,3.32,1.46,5.37.58,2.05,1.59,5.47,3.03,10.27l7.16,23.23,8.91,31.14,11.58-31.14,13.21-34.02c.47-1.22.92-2.52,1.37-3.89.45-1.37,1.15-3.59,2.12-6.64,2.52.04,5.14.07,7.86.07,2.17,0,4.66-.02,7.45-.07l-.73,31.21-.31,20.48c-.04,1.92-.06,3.84-.06,5.76l.06,14.98v8.44c0,.96.04,3.77.12,8.44-2.56-.09-4.27-.13-5.13-.13-1.2,0-2.97.04-5.3.13l.35-8.31.87-47.11c.12-5.28.17-11.14.17-17.6l-.06-5.37-25.55,68.9-3.38,9.49c-2.53-.09-4.3-.13-5.31-.13-1.21,0-3.08.04-5.61.13l-6.91-24.67-7.15-24.28-7.09-23.42c-.31-1.05-.83-2.92-1.57-5.63l-.71,7.66-3.56,56.27c-.08,1.88-.15,3.75-.21,5.63-.06,1.88-.13,4.69-.21,8.44l-4.88-.13c-.77,0-2.44.04-5,.13Z"/>
      <path class="st7" d="M225.34,494.97c-.15-3.53-.41-6.91-.76-10.14,4.08,1.4,7.2,2.31,9.38,2.75,2.17.44,4.33.65,6.47.65,2.02,0,3.96-.28,5.83-.85,1.63-.52,3.05-1.2,4.25-2.03,1.01-.7,1.84-1.48,2.5-2.36.85-1.18,1.59-2.6,2.21-4.26.66-1.66,1.11-3.58,1.34-5.76.35-3.14.72-9.45,1.1-18.92l.64-23.25.4-24.36,5.6.07,5.83-.07c-.82,13.62-1.43,25.6-1.82,35.95l-.88,24.82c-.19,6.15-.64,10.86-1.34,14.11-.7,3.25-2.05,6.03-4.05,8.35s-4.66,4.15-7.98,5.5c-3.32,1.35-7.09,2.03-11.32,2.03-5.08,0-10.89-.74-17.41-2.22Z"/>
      <path class="st7" d="M327.4,405c5.75,0,11.2.94,16.37,2.81,5.16,1.88,9.72,4.97,13.66,9.29,3.94,4.32,6.75,9.16,8.42,14.53s2.51,11.19,2.51,17.47c0,6.72-.93,13.17-2.8,19.37-1.86,6.19-4.74,11.45-8.62,15.77-3.88,4.32-8.66,7.56-14.33,9.72-5.67,2.16-11.63,3.24-17.88,3.24s-11.64-.98-17.1-2.94c-5.46-1.96-10.11-4.98-13.95-9.06-3.84-4.08-6.62-8.88-8.33-14.39-1.71-5.52-2.56-11.37-2.56-17.57,0-6.8,1.03-13.34,3.09-19.6,2.06-6.26,5.1-11.55,9.12-15.87,4.02-4.32,8.87-7.52,14.56-9.62,5.69-2.09,11.64-3.14,17.85-3.14ZM326.75,413.77c-4.66,0-9.07.84-13.22,2.52-4.16,1.68-7.78,4.37-10.86,8.07-3.09,3.71-5.38,8.06-6.87,13.07-1.5,5.01-2.24,10.24-2.24,15.69,0,5.06.74,9.9,2.21,14.55,1.48,4.64,3.65,8.51,6.52,11.6,2.87,3.09,6.33,5.39,10.37,6.9,4.04,1.5,8.25,2.26,12.64,2.26s8.8-.81,12.9-2.42c4.1-1.61,7.63-4.17,10.6-7.68,2.97-3.51,5.17-7.75,6.61-12.72,1.44-4.97,2.16-10.18,2.16-15.62,0-5.14-.65-10.06-1.95-14.74-1.3-4.68-3.38-8.68-6.23-12-2.85-3.31-6.24-5.72-10.17-7.22-3.92-1.5-8.08-2.26-12.47-2.26Z"/>
      <path class="st19" d="M90.96,628.41c1.1-13.94,2.05-30.97,2.84-51.1.79-20.13,1.28-39.97,1.47-59.53,3.32.05,5.85.08,7.58.08l6.72-.08-2.31,51.34-1.73,48.43,13.71.08c10.2,0,17.37-.04,21.53-.12,4.16-.08,8.19-.26,12.08-.53-.29,3.43-.53,7.24-.72,11.43-10.92-.11-20.56-.16-28.93-.16l-32.25.16Z"/>
      <path class="st11" d="M164.05,628.41l1.08-18.64,1.51-38.82,1.01-38.25c.05-2.21.07-4.43.07-6.65l-.07-8.27,7.44.08,7-.08c-.86,13.51-1.51,27.61-1.94,42.31-.77,23.56-1.32,46.33-1.66,68.32l-6.79-.16c-.87,0-3.42.05-7.65.16Z"/>
      <path class="st18" d="M220.91,628.41l1.44-24.8,1.94-51.38.65-23.75c-11.78.05-22.09.3-30.93.73.29-4.32.46-8.13.51-11.43,12.22.05,25.39.08,39.53.08l23.08-.08h12.26c-.34,4.79-.5,8.6-.5,11.43-7.46-.49-15.71-.73-24.75-.73h-5.92l-1.51,35.87-1.51,50.53v13.52l-6.93-.16c-.63,0-3.08.05-7.37.16Z"/>
      <path class="st3" d="M281.43,517.78l7.15.08,7.01-.08-3.25,61.84-.22,7.54v1.54c0,7.51.98,13.33,2.96,17.47,1.97,4.13,5.11,7.33,9.42,9.6,4.31,2.27,9.75,3.4,16.34,3.4,4.43,0,8.52-.65,12.27-1.95,3.13-1.13,5.78-2.65,7.97-4.54,2.19-1.89,4.01-4.21,5.45-6.97,1.35-2.65,2.31-5.65,2.89-9,.67-4.21,1.27-11.56,1.8-22.04l1.29-26.1c.38-9.62.64-19.88.79-30.8l7.44.08,6.72-.08-2.1,38.17-1.31,31.61c-.43,7.35-1.13,13.05-2.09,17.1-.72,2.86-1.78,5.57-3.17,8.1-1.25,2.27-2.79,4.3-4.62,6.08-2.16,2.16-4.79,4.08-7.86,5.75-3.27,1.73-6.73,3.03-10.39,3.89-5.24,1.13-10.68,1.7-16.3,1.7s-10.6-.62-15.37-1.86c-4.14-1.08-7.94-2.73-11.4-4.94-3.46-2.21-6.23-4.73-8.3-7.54-1.73-2.27-3.1-5.13-4.11-8.59-1.15-3.89-1.73-8.19-1.73-12.89,0-5.03.18-10.78.54-17.26.36-6.48.81-16.26,1.36-29.34.55-13.07.82-23.07.82-29.99Z"/>
      <path class="st12" d="M385.2,628.41l1.08-18.64,1.51-38.82,1.01-38.25c.05-2.21.07-4.43.07-6.65l-.07-8.27,7.44.08,7-.08c-.86,13.51-1.51,27.61-1.94,42.31-.77,23.56-1.32,46.33-1.66,68.32l-6.79-.16c-.87,0-3.42.05-7.65.16Z"/>
    </g>
  </g>
</svg>