<?xml version="1.0" encoding="UTF-8"?>
<svg xmlns="http://www.w3.org/2000/svg" version="1.1" xmlns:xlink="http://www.w3.org/1999/xlink" viewBox="0 0 2114.5 500">
  <defs>
    <style>
      .cls-1 {
        fill: url(#Degradado_sin_nombre_10-4);
      }

      .cls-1, .cls-2, .cls-3, .cls-4, .cls-5, .cls-6, .cls-7, .cls-8, .cls-9, .cls-10, .cls-11, .cls-12, .cls-13, .cls-14, .cls-15, .cls-16, .cls-17, .cls-18, .cls-19, .cls-20, .cls-21, .cls-22 {
        stroke-width: 0px;
      }

      .cls-2 {
        fill: url(#Degradado_sin_nombre_10-3);
      }

      .cls-3 {
        fill: url(#Degradado_sin_nombre_3);
      }

      .cls-4 {
        fill: #1f293d;
      }

      .cls-5 {
        fill: url(#Degradado_sin_nombre_10-5);
      }

      .cls-6 {
        fill: url(#Degradado_sin_nombre_10-2);
      }

      .cls-7 {
        fill: #25354c;
      }

      .cls-8 {
        fill: #303030;
      }

      .cls-9 {
        fill: #30435e;
      }

      .cls-10 {
        fill: #c9feff;
      }

      .cls-11 {
        fill: #1b293b;
      }

      .cls-12 {
        fill: #60b5fd;
      }

      .cls-13 {
        fill: #52a1eb;
      }

      .cls-14 {
        fill: url(#Degradado_sin_nombre_4);
      }

      .cls-15 {
        fill: #2561b7;
      }

      .cls-16 {
        fill: #1e3b69;
      }

      .cls-17 {
        fill: url(#Degradado_sin_nombre);
      }

      .cls-18 {
        fill: url(#Degradado_sin_nombre_2);
      }

      .cls-19 {
        fill: url(#Degradado_sin_nombre_10);
      }

      .cls-20 {
        fill: #7dc717;
      }

      .cls-21 {
        fill: url(#Degradado_sin_nombre_5);
      }

      .cls-22 {
        fill: #2563ba;
      }
    </style>
    <linearGradient id="Degradado_sin_nombre" data-name="Degradado sin nombre" x1="246.8" y1="-139.6" x2="89" y2="-251.7" gradientTransform="translate(0 -80) scale(1 -1)" gradientUnits="userSpaceOnUse">
      <stop offset="0" stop-color="#c7ebf9"/>
      <stop offset="0" stop-color="#b7e7fa"/>
      <stop offset=".3" stop-color="#9ee0fb"/>
      <stop offset=".5" stop-color="#8cdcfb"/>
      <stop offset=".7" stop-color="#81d9fc"/>
      <stop offset="1" stop-color="#7ed8fc"/>
    </linearGradient>
    <linearGradient id="Degradado_sin_nombre_2" data-name="Degradado sin nombre 2" x1="267.3" y1="-150.7" x2="398.8" y2="-234.4" gradientTransform="translate(0 -80) scale(1 -1)" gradientUnits="userSpaceOnUse">
      <stop offset="0" stop-color="#1a65a3"/>
      <stop offset="1" stop-color="#41608c"/>
    </linearGradient>
    <linearGradient id="Degradado_sin_nombre_3" data-name="Degradado sin nombre 3" x1="108.9" y1="-438.9" x2="233" y2="-518.6" gradientTransform="translate(0 -80) scale(1 -1)" gradientUnits="userSpaceOnUse">
      <stop offset="0" stop-color="#1d7edd"/>
      <stop offset=".5" stop-color="#1472d1"/>
      <stop offset="1" stop-color="#0860bf"/>
    </linearGradient>
    <linearGradient id="Degradado_sin_nombre_4" data-name="Degradado sin nombre 4" x1="91.1" y1="-414.5" x2="93.6" y2="-253.8" gradientTransform="translate(0 -80) scale(1 -1)" gradientUnits="userSpaceOnUse">
      <stop offset="0" stop-color="#1d7edd"/>
      <stop offset=".2" stop-color="#2889dd"/>
      <stop offset="1" stop-color="#5bbfdd"/>
    </linearGradient>
    <linearGradient id="Degradado_sin_nombre_5" data-name="Degradado sin nombre 5" x1="236" y1="-211.4" x2="361.9" y2="-291.5" gradientTransform="translate(0 -80) scale(1 -1)" gradientUnits="userSpaceOnUse">
      <stop offset="0" stop-color="#8ccaf4"/>
      <stop offset="1" stop-color="#5bb2fb"/>
    </linearGradient>
    <linearGradient id="Degradado_sin_nombre_10" data-name="Degradado sin nombre 10" x1="1319.6" y1="262.3" x2="1456.3" y2="262.3" gradientUnits="userSpaceOnUse">
      <stop offset="0" stop-color="#1d7edd"/>
      <stop offset=".5" stop-color="#1472d1"/>
      <stop offset="1" stop-color="#0860bf"/>
    </linearGradient>
    <linearGradient id="Degradado_sin_nombre_10-2" data-name="Degradado sin nombre 10" x1="1492.3" x2="1543" xlink:href="#Degradado_sin_nombre_10"/>
    <linearGradient id="Degradado_sin_nombre_10-3" data-name="Degradado sin nombre 10" x1="1573.6" y1="262.1" x2="1740.9" y2="262.1" xlink:href="#Degradado_sin_nombre_10"/>
    <linearGradient id="Degradado_sin_nombre_10-4" data-name="Degradado sin nombre 10" x1="1772.7" y1="265.6" x2="1995.7" y2="265.6" xlink:href="#Degradado_sin_nombre_10"/>
    <linearGradient id="Degradado_sin_nombre_10-5" data-name="Degradado sin nombre 10" x1="2029.8" x2="2080.5" xlink:href="#Degradado_sin_nombre_10"/>
  </defs>
  <g id="Capa_1" data-name="Capa 1">
    <g id="Capa_2" data-name="Capa 2">
      <polygon class="cls-17" points="59.9 143.3 253.5 25 253.5 103.9 124.4 182.8 59.9 143.3"/>
      <polygon class="cls-18" points="446.2 142.6 380.2 182.8 253.5 103.9 253.5 25 446.2 142.6"/>
      <polygon class="cls-4" points="380.2 182.8 380.2 332.3 253.5 409.7 253.5 484.9 446.2 371.8 446.2 142.6 380.2 182.8"/>
      <polygon class="cls-3" points="125.2 335.4 253.5 409.7 253.5 484.9 59.9 369.5 125.2 335.4"/>
      <polygon class="cls-14" points="124.4 182.8 125.2 335.4 59.9 369.5 59.9 143.3 124.4 182.8"/>
      <polygon class="cls-10" points="253.5 182.8 253.5 103.9 124.4 182.8 189 222.3 253.5 182.8"/>
      <polygon class="cls-21" points="315.7 222.3 253.5 182.8 253.5 103.9 380.2 182.8 315.7 222.3"/>
      <polygon class="cls-13" points="253.5 259.7 315.7 222.3 253.5 182.8 189 222.3 253.5 259.7"/>
      <polygon class="cls-9" points="253.5 335.4 253.5 259.7 189 222.3 189 296.6 253.5 335.4"/>
      <polygon class="cls-11" points="315.7 296.1 253.5 335.4 253.5 259.7 315.7 222.3 315.7 296.1"/>
      <polygon class="cls-7" points="380.2 259.7 315.7 296.1 315.7 222.3 380.2 182.8 380.2 259.7"/>
      <polygon class="cls-12" points="189 296.6 189 372.3 125.2 335.4 124.4 182.8 189 222.3 189 296.6"/>
      <polygon class="cls-15" points="315.7 296.1 315.7 371.7 380.2 332.3 380.2 259.7 315.7 296.1"/>
      <polygon class="cls-16" points="253.5 335.4 315.7 296.1 315.7 371.7 253.5 409.7 253.5 335.4"/>
      <polygon class="cls-22" points="189 296.6 253.5 335.4 253.5 409.7 189 372.3 189 296.6"/>
    </g>
  </g>
  <g id="Capa_2-2" data-name="Capa 2">
    <g>
      <path class="cls-19" d="M1456.3,405.4h-136.7V119.2h50.7v240.5h86v45.7Z"/>
      <path class="cls-6" d="M1543,405.4h-50.7V119.2h50.7v286.2Z"/>
      <path class="cls-2" d="M1740.9,163.8l-57.7,1.2v240.5h-50.3v-240.5l-59.3-1.2,1.5-44.9h165.8v44.9Z"/>
      <path class="cls-1" d="M1995.7,298.9c0,32.8-10.5,59.8-31.4,81.1-20.9,21.3-47.8,32-80.6,32s-58.5-10.5-79.6-31.6c-21-21-31.6-47.6-31.6-79.6V119.2h50.7v173.5c0,21.4,4.6,38.5,13.9,51.1,10.3,13.9,25.8,20.9,46.5,20.9,40.8,0,61.2-24.9,61.2-74.7V119.2h50.7v179.7Z"/>
      <path class="cls-5" d="M2080.5,405.4h-50.7V119.2h50.7v286.2Z"/>
    </g>
    <g>
      <path class="cls-8" d="M798.1,400.4h-51.1l-1.2-154.9-88.3,92.9-88.3-92.9v154.9h-54.2V101.4l141,159.6,142.1-158v297.4Z"/>
      <path class="cls-8" d="M953.8,295.8c0,72.8-28.9,109.2-86.7,109.2h-34.9v-46.5c19.4.3,32.4.4,39.1.4,21.2,0,31.8-21,31.8-63.1l-1.2-138.6h-72.8l1.5-44.9,123.2.4v183.2Z"/>
      <path class="cls-8" d="M1290.4,255.5c0,41.8-15.5,77.3-46.5,106.3-31,29-67.5,43.6-109.6,43.6s-78.9-14.4-109.6-43.2c-30.7-28.8-46.1-64.3-46.1-106.7s15.6-77.3,46.9-106.5c30.5-28.1,66.7-42.2,108.8-42.2s78.5,14.1,109.2,42.2c31.2,29.2,46.9,64.7,46.9,106.5ZM1239.6,255.5c0-28.9-10.3-53.3-30.8-73.2-20.5-19.9-45.4-29.8-74.6-29.8s-54,9.9-74.6,29.6c-20.5,19.8-30.8,44.2-30.8,73.4s10.4,52.9,31.2,72.8c20.8,19.9,45.5,29.8,74.2,29.8s53.4-10,74.2-30c20.8-20,31.2-44.2,31.2-72.6Z"/>
    </g>
    <circle class="cls-20" cx="1136.4" cy="253.7" r="37.4"/>
  </g>
</svg>