<?xml version="1.0" encoding="UTF-8"?>
<svg xmlns="http://www.w3.org/2000/svg" version="1.1" xmlns:xlink="http://www.w3.org/1999/xlink" viewBox="0 0 500 643">
  <defs>
    <style>
      .cls-1 {
        fill: url(#Degradado_sin_nombre_12);
      }

      .cls-1, .cls-2, .cls-3, .cls-4, .cls-5, .cls-6, .cls-7, .cls-8, .cls-9, .cls-10, .cls-11, .cls-12, .cls-13, .cls-14, .cls-15, .cls-16, .cls-17, .cls-18, .cls-19, .cls-20, .cls-21, .cls-22 {
        stroke-width: 0px;
      }

      .cls-2 {
        fill: url(#Degradado_sin_nombre_12-3);
      }

      .cls-3 {
        fill: url(#Degradado_sin_nombre_3);
      }

      .cls-4 {
        fill: #1f293d;
      }

      .cls-5 {
        fill: #25354c;
      }

      .cls-6 {
        fill: #303030;
      }

      .cls-7 {
        fill: #30435e;
      }

      .cls-8 {
        fill: #c9feff;
      }

      .cls-9 {
        fill: #1b293b;
      }

      .cls-10 {
        fill: #60b5fd;
      }

      .cls-11 {
        fill: url(#Degradado_sin_nombre_12-4);
      }

      .cls-12 {
        fill: #52a1eb;
      }

      .cls-13 {
        fill: url(#Degradado_sin_nombre_4);
      }

      .cls-14 {
        fill: #2561b7;
      }

      .cls-15 {
        fill: url(#Degradado_sin_nombre_12-5);
      }

      .cls-16 {
        fill: #1e3b69;
      }

      .cls-17 {
        fill: url(#Degradado_sin_nombre);
      }

      .cls-18 {
        fill: url(#Degradado_sin_nombre_2);
      }

      .cls-19 {
        fill: #7dc717;
      }

      .cls-20 {
        fill: url(#Degradado_sin_nombre_5);
      }

      .cls-21 {
        fill: url(#Degradado_sin_nombre_12-2);
      }

      .cls-22 {
        fill: #2563ba;
      }
    </style>
    <linearGradient id="Degradado_sin_nombre" data-name="Degradado sin nombre" x1="244.9" y1="-409.2" x2="118.4" y2="-319.4" gradientTransform="translate(0 452)" gradientUnits="userSpaceOnUse">
      <stop offset="0" stop-color="#c7ebf9"/>
      <stop offset="0" stop-color="#b7e7fa"/>
      <stop offset=".3" stop-color="#9ee0fb"/>
      <stop offset=".5" stop-color="#8cdcfb"/>
      <stop offset=".7" stop-color="#81d9fc"/>
      <stop offset="1" stop-color="#7ed8fc"/>
    </linearGradient>
    <linearGradient id="Degradado_sin_nombre_2" data-name="Degradado sin nombre 2" x1="261.3" y1="-400.4" x2="366.7" y2="-333.3" gradientTransform="translate(0 452)" gradientUnits="userSpaceOnUse">
      <stop offset="0" stop-color="#1a65a3"/>
      <stop offset="1" stop-color="#41608c"/>
    </linearGradient>
    <linearGradient id="Degradado_sin_nombre_3" data-name="Degradado sin nombre 3" x1="134.3" y1="-169.3" x2="233.8" y2="-105.5" gradientTransform="translate(0 452)" gradientUnits="userSpaceOnUse">
      <stop offset="0" stop-color="#1d7edd"/>
      <stop offset=".5" stop-color="#1472d1"/>
      <stop offset="1" stop-color="#0860bf"/>
    </linearGradient>
    <linearGradient id="Degradado_sin_nombre_4" data-name="Degradado sin nombre 4" x1="120.1" y1="-188.9" x2="122.1" y2="-317.7" gradientTransform="translate(0 452)" gradientUnits="userSpaceOnUse">
      <stop offset="0" stop-color="#1d7edd"/>
      <stop offset=".2" stop-color="#2889dd"/>
      <stop offset="1" stop-color="#5bbfdd"/>
    </linearGradient>
    <linearGradient id="Degradado_sin_nombre_5" data-name="Degradado sin nombre 5" x1="236.2" y1="-351.7" x2="337.2" y2="-287.5" gradientTransform="translate(0 452)" gradientUnits="userSpaceOnUse">
      <stop offset="0" stop-color="#8ccaf4"/>
      <stop offset="1" stop-color="#5bb2fb"/>
    </linearGradient>
    <linearGradient id="Degradado_sin_nombre_12" data-name="Degradado sin nombre 12" x1="125.6" y1="563.4" x2="169.4" y2="563.4" gradientUnits="userSpaceOnUse">
      <stop offset="0" stop-color="#1d7edd"/>
      <stop offset=".5" stop-color="#1472d1"/>
      <stop offset="1" stop-color="#0860bf"/>
    </linearGradient>
    <linearGradient id="Degradado_sin_nombre_12-2" data-name="Degradado sin nombre 12" x1="180.9" x2="197.2" xlink:href="#Degradado_sin_nombre_12"/>
    <linearGradient id="Degradado_sin_nombre_12-3" data-name="Degradado sin nombre 12" x1="207" y1="563.3" x2="260.5" y2="563.3" xlink:href="#Degradado_sin_nombre_12"/>
    <linearGradient id="Degradado_sin_nombre_12-4" data-name="Degradado sin nombre 12" x1="270.7" y1="564.4" x2="342.2" y2="564.4" xlink:href="#Degradado_sin_nombre_12"/>
    <linearGradient id="Degradado_sin_nombre_12-5" data-name="Degradado sin nombre 12" x1="353.1" x2="369.3" xlink:href="#Degradado_sin_nombre_12"/>
  </defs>
  <g id="Capa_1" data-name="Capa 1">
    <g>
      <polygon class="cls-17" points="95.1 109.9 250.3 15 250.3 78.2 146.8 141.6 95.1 109.9"/>
      <polygon class="cls-18" points="404.7 109.2 351.8 141.6 250.3 78.2 250.3 15 404.7 109.2"/>
      <polygon class="cls-4" points="351.8 141.6 351.8 261.4 250.3 323.4 250.3 383.6 404.7 293 404.7 109.2 351.8 141.6"/>
      <polygon class="cls-3" points="147.4 263.8 250.3 323.4 250.3 383.6 95.1 291.2 147.4 263.8"/>
      <polygon class="cls-13" points="146.8 141.6 147.4 263.8 95.1 291.2 95.1 109.9 146.8 141.6"/>
      <polygon class="cls-8" points="250.3 141.6 250.3 78.2 146.8 141.6 198.5 173.1 250.3 141.6"/>
      <polygon class="cls-20" points="300.1 173.1 250.3 141.6 250.3 78.2 351.8 141.6 300.1 173.1"/>
      <polygon class="cls-12" points="250.3 203.2 300.1 173.1 250.3 141.6 198.5 173.1 250.3 203.2"/>
      <polygon class="cls-7" points="250.3 263.8 250.3 203.2 198.5 173.1 198.5 232.8 250.3 263.8"/>
      <polygon class="cls-9" points="300.1 232.4 250.3 263.8 250.3 203.2 300.1 173.1 300.1 232.4"/>
      <polygon class="cls-5" points="351.8 203.2 300.1 232.4 300.1 173.1 351.8 141.6 351.8 203.2"/>
      <polygon class="cls-10" points="198.5 232.8 198.5 293.4 147.4 263.8 146.8 141.6 198.5 173.1 198.5 232.8"/>
      <polygon class="cls-14" points="300.1 232.4 300.1 293 351.8 261.4 351.8 203.2 300.1 232.4"/>
      <polygon class="cls-16" points="250.3 263.8 300.1 232.4 300.1 293 250.3 323.4 250.3 263.8"/>
      <polygon class="cls-22" points="198.5 232.8 250.3 263.8 250.3 323.4 198.5 293.4 198.5 232.8"/>
    </g>
  </g>
  <g id="Capa_2" data-name="Capa 2">
    <g>
      <path class="cls-1" d="M169.4,609.2h-43.8v-91.7h16.2v77h27.5v14.6Z"/>
      <path class="cls-21" d="M197.2,609.2h-16.2v-91.7h16.2v91.7Z"/>
      <path class="cls-2" d="M260.5,531.8l-18.5.4v77h-16.1v-77l-19-.4.5-14.4h53.1v14.4Z"/>
      <path class="cls-11" d="M342.2,575.1c0,10.5-3.3,19.2-10,26-6.7,6.8-15.3,10.2-25.8,10.2s-18.8-3.4-25.5-10.1c-6.7-6.7-10.1-15.2-10.1-25.5v-58.2h16.2v55.6c0,6.9,1.5,12.3,4.5,16.4,3.3,4.5,8.3,6.7,14.9,6.7,13.1,0,19.6-8,19.6-23.9v-54.7h16.2v57.6Z"/>
      <path class="cls-15" d="M369.3,609.2h-16.2v-91.7h16.2v91.7Z"/>
    </g>
    <g>
      <path class="cls-6" d="M217.6,499.6h-16.4l-.4-49.6-28.3,29.8-28.3-29.8v49.6h-17.4v-95.8l45.1,51.1,45.5-50.6v95.3Z"/>
      <path class="cls-6" d="M267.4,466.1c0,23.3-9.3,35-27.8,35h-11.2v-14.9c6.2,0,10.4.1,12.5.1,6.8,0,10.2-6.7,10.2-20.2l-.4-44.4h-23.3l.5-14.4h39.4v58.8Z"/>
      <path class="cls-6" d="M375.2,453.2c0,13.4-5,24.7-14.9,34-9.9,9.3-21.6,14-35.1,14s-25.3-4.6-35.1-13.8c-9.8-9.2-14.8-20.6-14.8-34.2s5-24.8,15-34.1c9.8-9,21.4-13.5,34.9-13.5s25.1,4.5,35,13.5c10,9.3,15,20.7,15,34.1ZM359,453.2c0-9.3-3.3-17.1-9.9-23.4-6.6-6.4-14.5-9.6-23.9-9.6s-17.3,3.2-23.9,9.5c-6.6,6.3-9.9,14.2-9.9,23.5s3.3,17,10,23.3c6.7,6.4,14.6,9.6,23.8,9.6s17.1-3.2,23.8-9.6c6.7-6.4,10-14.2,10-23.3Z"/>
    </g>
    <circle class="cls-19" cx="325.9" cy="452.6" r="12"/>
  </g>
</svg>